Simulation
nRows=48
nColumns=15
endheader
time  TH_x TH_y TH_z SC_y  SC_z  SC_x  AC_y  AC_z  AC_x  GH_y  GH_z  GH_yy  EL_x  PS_y
5.362  0.000000  0.000000  0.000000  -26.337829666869883  6.6555607805007595  15.418610664085065  56.78939889248707  19.267369409708706  9.486498407708051  -7.478822920972848  66.36783909761438  6.466716742270758  13.596944818106046  120.000000
5.4156200000000005  0.000000  0.000000  0.000000  -26.541929486674036  6.672578120162701  16.14347325547513  57.013565345354685  18.59257056614038  8.94124989148972  -7.222484661449318  66.5940816215818  6.004914668867888  13.653399890406076  120.000000
5.46924  0.000000  0.000000  0.000000  -26.619271554985207  6.637236016509556  16.405326344451318  57.29797239279329  17.88808685879317  8.1737334474704  -6.871901514503061  66.59561683721356  5.563872512859545  13.521424281283855  120.000000
5.52286  0.000000  0.000000  0.000000  -26.56880905478797  6.541311493000239  16.189362176314976  57.625634260663574  17.145661439895328  7.229592108911567  -6.431913776265938  66.32136669979593  5.121887561735086  13.259138294662762  120.000000
5.57648  0.000000  0.000000  0.000000  -26.399062570997188  6.368217403030081  15.496101564575678  57.96601794851394  16.357312461814004  6.181339997701798  -5.901693088748596  65.72300156852835  4.6518493307309345  12.951224638252132  120.000000
5.6301000000000005  0.000000  0.000000  0.000000  -26.129503660349602  6.100511058762061  14.337435897005355  58.27415891143916  15.521513351204744  5.1167903106186  -5.269491224626386  64.76838570880747  4.145139793748242  12.676561955871408  120.000000
5.68372  0.000000  0.000000  0.000000  -25.78878740131011  5.726720088479476  12.736177223023617  58.49245102986679  14.651624475060316  4.1275817425289665  -4.513253956709105  63.45016795246341  3.627966823764318  12.482299496555191  120.000000
5.73734  0.000000  0.000000  0.000000  -25.408524238968987  5.247682475902166  10.728808295394934  58.559153168576024  13.78119340444613  3.2973205892813664  -3.607210599606658  61.78324455809357  3.1615073652994825  12.376038123497352  120.000000
5.79096  0.000000  0.000000  0.000000  -25.013089957583862  4.679352590560573  8.372120705467017  58.422373667097325  12.959720169762369  2.690652498694124  -2.530864009324172  59.79113586998377  2.825010470697046  12.337175585445628  120.000000
5.8445800000000006  0.000000  0.000000  0.000000  -24.611491422451884  4.052818690977418  5.748310471820658  58.053963745571956  12.240002272979398  2.343155325558615  -1.2762027105174165  57.489852108129  2.6923405839259815  12.334481113649206  120.000000
5.8982  0.000000  0.000000  0.000000  -24.195380092189836  3.411120951768853  2.9643981087598283  57.456818308428595  11.665136187113188  2.2550702683666515  0.14865747533493906  54.87853124823662  2.8130797243981416  12.33903635071574  120.000000
5.95182  0.000000  0.000000  0.000000  -23.744808392279435  2.8021189421039745  0.1456521774718112  56.66193145368116  11.262693984331587  2.3941901222296944  1.7196759738529985  51.94288807504787  3.204931301654453  12.329856474001012  120.000000
6.00544  0.000000  0.000000  0.000000  -23.23960739613782  2.273556364112618  -2.5762989855579237  55.720984023410104  11.045584725113109  2.7045357275888646  3.401135935579445  48.671748722752966  3.8566018968579403  12.293920168926144  120.000000
6.059060000000001  0.000000  0.000000  0.000000  -22.670621568438538  1.8675213688091137  -5.075667007006288  54.698681536482475  11.015382391937424  3.1232657480073347  5.157823187975422  45.08250983738734  4.733596654062731  12.227080295947715  120.000000
6.11268  0.000000  0.000000  0.000000  -22.04926211204897  1.6171274410508194  -7.2501523961756895  53.66885251888992  11.162409700386368  3.594855139965552  6.97066967328583  41.2434619819464  5.781718813898853  12.137992799056118  120.000000
6.1663  0.000000  0.000000  0.000000  -21.414461951164693  1.536060870219044  -9.0367588334007  52.70221644080748  11.463134824943788  4.084121726141246  8.842007224143652  37.275037143625134  6.933649741831619  12.049150964980019  120.000000
6.21992  0.000000  0.000000  0.000000  -20.828358774347187  1.6141127017373578  -10.419665475989856  51.858070229053254  11.880139885132673  4.576534025193097  10.790257097807634  33.329398008616366  8.119418171768347  11.993425708599066  120.000000
6.273540000000001  0.000000  0.000000  0.000000  -20.352232007814937  1.8225981391000958  -11.42324483664308  51.1881842184817  12.363818071718974  5.056078228188417  12.83448854186379  29.55307948261829  9.281811177097952  12.007350858020468  120.000000
6.32716  0.000000  0.000000  0.000000  -20.02602913736675  2.114208357157592  -12.08479923845054  50.72638649735006  12.85707371256683  5.503167722572561  14.970982180505457  26.05063647267986  10.39640860285525  12.125548994687863  120.000000
6.38078  0.000000  0.000000  0.000000  -19.85585974861058  2.437864147325191  -12.441983341202818  50.482754072092455  13.314729736673124  5.901928004793544  17.157736014627577  22.87563940371562  11.480777080051988  12.376878694659833  120.000000
6.4344  0.000000  0.000000  0.000000  -19.816646078115376  2.7552672497716695  -12.535303936954959  50.45139540649593  13.716693313857416  6.238876428833979  19.318364389687986  20.041302097491783  12.582832365677074  12.781888576137248  120.000000
6.488020000000001  0.000000  0.000000  0.000000  -19.867058046959254  3.0417215760746568  -12.403824161750755  50.61227976026128  14.064078127395895  6.505867362032697  21.362427732465832  17.532676841506998  13.750282498028742  13.346840111931668  120.000000
6.54164  0.000000  0.000000  0.000000  -19.968657519478334  3.2825830711959125  -12.081461105624701  50.93005259841987  14.371398789816375  6.702827384964444  23.221542542916907  15.319335227573973  14.985115866281413  14.051873252801387  120.000000
6.59526  0.000000  0.000000  0.000000  -20.102272697934907  3.4728073184361676  -11.600021593816114  51.35631202565837  14.65770043325307  6.835401470052971  24.895195308774348  13.36562099181606  16.196166380889572  14.841752831415873  120.000000
6.64888  0.000000  0.000000  0.000000  -20.271350045528262  3.6174228274515126  -10.992887497337959  51.83888121906402  14.939543635197591  6.906802094588128  26.496894877470865  11.63826809894921  17.163236111643215  15.631358812620006  120.000000
6.702500000000001  0.000000  0.000000  0.000000  -20.492360983215406  3.7285942273268526  -10.295986563662714  52.33099107184973  15.227344425307642  6.914974482039248  28.277079496918418  10.1085640336896  17.539321172380244  16.32829819797774  120.000000
6.75612  0.000000  0.000000  0.000000  -20.778856218137797  3.819204312217458  -9.543983161172312  52.79239296775547  15.524745777207439  6.858236022909119  30.57661627204799  8.750149074723833  16.92802002698461  16.861812807499078  120.000000
6.80974  0.000000  0.000000  0.000000  -21.125195859011367  3.899360703857887  -8.761593426322976  53.192960245106256  15.82831748271986  6.739484918555718  33.73151152032727  7.53852932540426  15.003039367956575  17.206220629759105  120.000000
6.86336  0.000000  0.000000  0.000000  -21.50082221910771  3.975762045049267  -7.962862231079926  53.51619699999975  16.1310534376901  6.5700673894534365  38.00366162353667  6.451673115724119  11.578683716834727  17.384731189913165  120.000000
6.916980000000001  0.000000  0.000000  0.000000  -21.860708290100018  4.051937053780565  -7.155862928684072  53.75811836569194  16.425279821826056  6.3704443862697895  43.59691541737467  5.470382392203382  6.569450591956027  17.451171280653025  120.000000
6.9706  0.000000  0.000000  0.000000  -22.16370885986886  4.1299575092562115  -6.344188135644474  53.92473308733693  16.70068147639971  6.162607572886934  50.79349103752602  4.581385955152398  -0.183386862672354  17.463825181724758  120.000000
7.02422  0.000000  0.000000  0.000000  -22.3859235477985  4.211404436916145  -5.529675533218207  54.03056929635983  16.943561325464348  5.962437887713784  60.22280956617002  3.78832603135492  -9.211736017556492  17.46657749796104  120.000000
7.07784  0.000000  0.000000  0.000000  -22.52458660598145  4.2971912933141025  -4.716329707563757  54.09683186934341  17.139259108743808  5.7778282504756415  73.06263835731927  3.1310502335372443  -21.637320985520795  17.483181030673208  120.000000
7.131460000000001  0.000000  0.000000  0.000000  -22.595566958466048  4.387456683495831  -3.9111751342915198  54.144479722404476  17.277661482041477  5.608798902027955  90.29309551543632  2.694976337949967  -38.42251425873275  17.519010018279833  120.000000
7.18508  0.000000  0.000000  0.000000  -22.62583604801327  4.48234373581431  -3.1231656085405337  54.18515329308129  17.355931810797525  5.450362349889805  110.27906367851222  2.566913356114054  -57.93705572314334  17.567682847527873  120.000000
7.2387  0.000000  0.000000  0.000000  -22.64392426405546  4.580788705019  -2.363310438614989  54.22218808779312  17.375060764872003  5.2975728071219725  128.39576590008872  2.738116611040024  -75.56802247006073  17.619452560992016  120.000000
7.29232  0.000000  0.000000  0.000000  -22.67017995239566  4.679580746124566  -1.6454275499679452  54.258470944972224  17.337068264702786  5.145971489947318  141.70418733588332  3.0925015471298445  -88.38621271395488  17.667494742573545  120.000000
7.345940000000001  0.000000  0.000000  0.000000  -22.714385515658904  4.773476978450237  -0.9858624562489362  54.29902764280206  17.24295880614079  4.991413736905128  150.50537388281205  3.5009923250078914  -96.69786519352454  17.709146382136336  120.000000
7.39956  0.000000  0.000000  0.000000  -22.777133890982267  4.855406114578235  -0.40363549522896697  54.34976503405955  17.09215821893312  4.830791045527873  156.07435962171095  3.872134923570668  -101.77957991584817  17.7452777756759  120.000000
7.45318  0.000000  0.000000  0.000000  -22.852937821774212  4.917606395681162  0.07988137409565646  54.41562225893541  16.882843466749698  4.662504665238985  159.4127208395677  4.1478590522589665  -104.63259862509386  17.779340031958277  120.000000
7.5068  0.000000  0.000000  0.000000  -22.93180784168557  4.953057314721228  0.44281295536263576  54.49909276665945  16.61315273702082  4.487001901204896  161.10235427479927  4.290623735165489  -105.8380528690018  17.81680756966541  120.000000
7.560420000000001  0.000000  0.000000  0.000000  -23.00105282224177  4.956480493964391  0.6654138283607655  54.59911150589313  16.28251850766954  4.307721261461019  161.3880378691189  4.27593882248243  -105.64095097272947  17.86373873196105  120.000000
7.61404  0.000000  0.000000  0.000000  -23.04748255904053  4.925228774529194  0.7321346447300107  54.70990077182285  15.892259206453877  4.130786337260989  160.23402378348172  4.089757879904919  -104.00878646077902  17.92426894703728  120.000000
7.66766  0.000000  0.000000  0.000000  -23.06013601522314  4.859832646454571  0.6328325787360665  54.81887087842776  15.445554748402962  3.9641237383041585  157.273782267437  3.7293037560071376  -100.58356081138082  17.996760303223123  120.000000
7.72128  0.000000  0.000000  0.000000  -23.030895564513262  4.764186312928031  0.36339642117427384  54.906995198121095  14.94799750165753  3.815697581272772  151.50627260714867  3.210284505428405  -94.38073395350582  18.071216814669263  120.000000
7.774900000000001  0.000000  0.000000  0.000000  -22.95334396104258  4.6439956589909865  -0.07383716418310857  54.9514112048343  14.407449882815978  3.692976341056331  140.42981838067251  2.5898308372164287  -82.92302824902953  18.129472072112765  120.000000
7.82852  0.000000  0.000000  0.000000  -22.817992312829634  4.5045645419715346  -0.6704063995531632  54.92923998214703  13.834088176635374  3.603515165796952  118.51494841044357  2.0402817396994406  -60.70972841606414  18.147955574449057  120.000000
7.88214  0.000000  0.000000  0.000000  -22.611922702418422  4.349911047117802  -1.4122742216481685  54.823944355249715  13.238895648916523  3.554257632463065  83.32147038813768  1.9795824281602452  -25.329829182883774  18.09952055423685  120.000000
